<svg width="1080" height="1080" viewBox="0 0 1080 1080" fill="none" xmlns="http://www.w3.org/2000/svg">
<mask id="path-1-inside-1_23_2" fill="white">
<path d="M284 155C300.569 155 314 168.431 314 185V196H988C1004.57 196 1018 209.431 1018 226V853C1018 869.569 1004.57 883 988 883H92C75.4315 883 62 869.569 62 853V226C62 209.431 75.4315 196 92 196H119V185C119 168.431 132.431 155 149 155H284Z"/>
</mask>
<path d="M314 196H309V201H314V196ZM988 196L988 191H988V196ZM1018 853L1023 853V853H1018ZM988 883L988 888H988L988 883ZM92 883L92 888H92V883ZM62 226L57 226V226H62ZM92 196L92 191H92L92 196ZM119 196V201H124V196H119ZM119 185L114 185V185H119ZM149 155L149 150H149L149 155ZM284 155V160C297.807 160 309 171.193 309 185H314H319C319 165.67 303.33 150 284 150V155ZM314 185H309V196H314H319V185H314ZM314 196V201H988V196V191H314V196ZM988 196L988 201C1001.81 201 1013 212.193 1013 226H1018H1023C1023 206.67 1007.33 191 988 191L988 196ZM1018 226H1013V853H1018H1023V226H1018ZM1018 853L1013 853C1013 866.807 1001.81 878 988 878L988 883L988 888C1007.33 888 1023 872.33 1023 853L1018 853ZM988 883V878H92V883V888H988V883ZM92 883L92 878C78.1929 878 67 866.807 67 853H62H57C57 872.33 72.67 888 92 888L92 883ZM62 853H67V226H62H57V853H62ZM62 226L67 226C67 212.193 78.1929 201 92 201L92 196L92 191C72.67 191 57 206.67 57 226L62 226ZM92 196V201H119V196V191H92V196ZM119 196H124V185H119H114V196H119ZM119 185L124 185C124 171.193 135.193 160 149 160L149 155L149 150C129.67 150 114 165.67 114 185L119 185ZM149 155V160H284V155V150H149V155Z" fill="white" mask="url(#path-1-inside-1_23_2)"/>
<mask id="path-3-inside-2_23_2" fill="white">
<path d="M689.674 327C705.07 327 714.693 343.667 706.995 357L601.34 540L706.995 723C714.693 736.333 705.071 753 689.675 753H390.03C374.634 753 365.011 736.333 372.709 723L478.364 540L372.709 357C365.011 343.667 374.634 327 390.03 327H689.674Z"/>
</mask>
<path d="M689.674 327C705.07 327 714.693 343.667 706.995 357L601.34 540L706.995 723C714.693 736.333 705.071 753 689.675 753H390.03C374.634 753 365.011 736.333 372.709 723L478.364 540L372.709 357C365.011 343.667 374.634 327 390.03 327H689.674Z" fill="url(#paint0_linear_23_2)"/>
<path d="M706.995 357L707.861 357.5L707.861 357.5L706.995 357ZM601.34 540L600.474 539.5L600.185 540L600.474 540.5L601.34 540ZM706.995 723L707.861 722.5L707.861 722.5L706.995 723ZM689.675 753L689.675 754L689.675 754L689.675 753ZM390.03 753L390.03 754H390.03V753ZM372.709 723L373.575 723.5L373.575 723.5L372.709 723ZM478.364 540L479.23 540.5L479.518 540L479.23 539.5L478.364 540ZM372.709 357L373.575 356.5L373.575 356.5L372.709 357ZM390.03 327L390.03 326L390.03 326L390.03 327ZM689.674 327V328C704.3 328 713.442 343.833 706.129 356.5L706.995 357L707.861 357.5C715.944 343.5 705.84 326 689.674 326V327ZM706.995 357L706.129 356.5L600.474 539.5L601.34 540L602.206 540.5L707.861 357.5L706.995 357ZM601.34 540L600.474 540.5L706.129 723.5L706.995 723L707.861 722.5L602.206 539.5L601.34 540ZM706.995 723L706.129 723.5C713.442 736.166 704.301 752 689.675 752L689.675 753L689.675 754C705.841 754 715.944 736.5 707.861 722.5L706.995 723ZM689.675 753V752H390.03V753V754H689.675V753ZM390.03 753L390.03 752C375.404 752 366.262 736.167 373.575 723.5L372.709 723L371.843 722.5C363.76 736.5 373.864 754 390.03 754L390.03 753ZM372.709 723L373.575 723.5L479.23 540.5L478.364 540L477.498 539.5L371.843 722.5L372.709 723ZM478.364 540L479.23 539.5L373.575 356.5L372.709 357L371.843 357.5L477.498 540.5L478.364 540ZM372.709 357L373.575 356.5C366.262 343.833 375.404 328 390.03 328L390.03 327L390.03 326C373.864 326 363.76 343.5 371.843 357.5L372.709 357ZM390.03 327V328H689.674V327V326H390.03V327Z" fill="white" mask="url(#path-3-inside-2_23_2)"/>
<defs>
<linearGradient id="paint0_linear_23_2" x1="539.852" y1="327" x2="539.852" y2="753" gradientUnits="userSpaceOnUse">
<stop offset="0.596154" stop-color="#FBFBFB" stop-opacity="0.21"/>
<stop offset="1" stop-color="#10B981"/>
</linearGradient>
</defs>
</svg>
